<svg fill="none" height="20" viewBox="0 0 20 20" width="20" xmlns="http://www.w3.org/2000/svg"><g fill="#212121"><path d="m14 3h-8c-.55228 0-1 .44772-1 1v11h4.02242c.03095.3434.09346.6777.18461 1h-4.20703c0 .5523.44772 1 1 1h3.59971c.1829.3578.40379.6929.65749 1h-4.2572c-1.10457 0-2-.8954-2-2v-12c0-1.10457.89543-2 2-2h8c1.1046 0 2 .89543 2 2v5.20703c-.3223-.09115-.6566-.15366-1-.18461v-5.02242c0-.55228-.4477-1-1-1z"/><path d="m6 5c0-.55228.44772-1 1-1h6c.5523 0 1 .44772 1 1v1c0 .55228-.4477 1-1 1h-6c-.55228 0-1-.44772-1-1zm1 0v1h6v-1z"/><path d="m19 14.5c0 2.4853-2.0147 4.5-4.5 4.5s-4.5-2.0147-4.5-4.5 2.0147-4.5 4.5-4.5 4.5 2.0147 4.5 4.5zm-4-2c0-.2761-.2239-.5-.5-.5s-.5.2239-.5.5v1.5h-1.5c-.2761 0-.5.2239-.5.5s.2239.5.5.5h1.5v1.5c0 .2761.2239.5.5.5s.5-.2239.5-.5v-1.5h1.5c.2761 0 .5-.2239.5-.5s-.2239-.5-.5-.5h-1.5z"/></g></svg>